General

Complete name                    : Wanted.2008{PSP.IPOD.ZUNE}DVDrip.aaaevilacharya.m4v
Format                           : MPEG-4
Format profile                   : Base Media / Version 2
Codec ID                         : mp42
File size                        : 278 MiB
Duration                         : 1h 45mn
Overall bit rate                 : 369 Kbps
Encoded date                     : UTC 2010-12-14 19:41:26
Tagged date                      : UTC 2010-12-14 21:09:36


Video
ID                               : 1
Format                           : AVC
Format/Info                      : Advanced Video Codec
Format profile                   : Baseline@L3.0
Format settings, CABAC           : No
Format settings, ReFrames        : 1 frame
Codec ID                         : avc1
Codec ID/Info                    : Advanced Video Coding
Duration                         : 1h 45mn
Bit rate mode                    : Variable
Bit rate                         : 284 Kbps
Width                            : 480 pixels
Height                           : 208 pixels
Display aspect ratio             : 2.35:1
Frame rate mode                  : Variable
Frame rate                       : 25.000 fps
Minimum frame rate               : 25.000 fps
Maximum frame rate               : 62.500 fps
Color space                      : YUV
Chroma subsampling               : 4:2:0
Bit depth                        : 8 bits
Scan type                        : Progressive
Bits/(Pixel*Frame)               : 0.114
Stream size                      : 214 MiB (77%)
Writing library                  : x264 core 79


Audio
ID                               : 2
Format                           : AAC
Format/Info                      : Advanced Audio Codec
Format version                   : Version 4
Format profile                   : LC
Format settings, SBR             : Yes
Format settings, PS              : No
Codec ID                         : 40
Duration                         : 1h 45mn
Bit rate mode                    : Variable
Bit rate                         : 82.6 Kbps
Maximum bit rate                 : 149 Kbps
Channel(s)                       : 2 channels
Channel positions                : Front: L R
Sampling rate                    : 48.0 KHz
Stream size                      : 62.2 MiB (22%)
Language                         : English
Encoded date                     : UTC 2010-12-14 19:41:26
Tagged date                      : UTC 2010-12-14 21:09:36

Text
ID                               : 3
Format                           : Apple text
Codec ID                         : text
Duration                         : 1h 45mn
Bit rate                         : 0
Stream size                      : 14.0 Bytes (0%)
Encoded date                     : UTC 2010-12-14 19:41:26
Tagged date                      : UTC 2010-12-14 21:09:36

SCREENSHOTS 
http://img46.imageshack.us/img46/7580/dvdcoverart8.jpg

 
http://img249.imageshack.us/img249/8389/wanted2008pspilodzunedv.jpg 
http://img69.imageshack.us/img69/8389/wanted2008pspilodzunedv.jpg 
http://img697.imageshack.us/img697/8389/wanted2008pspilodzunedv.jpg 
http://img258.imageshack.us/img258/8389/wanted2008pspilodzunedv.jpg 
http://img593.imageshack.us/img593/8389/wanted2008pspilodzunedv.jpg 
http://img529.imageshack.us/img529/8389/wanted2008pspilodzunedv.jpg 
http://img213.imageshack.us/img213/8389/wanted2008pspilodzunedv.jpg 
http://img813.imageshack.us/img813/8389/wanted2008pspilodzunedv.jpg
